<?xml version="1.0" encoding="UTF-8"?>
<svg version="1.1" xmlns="http://www.w3.org/2000/svg" width="48" height="48">
<path d="M0 0 C1.17018677 -0.00717545 1.17018677 -0.00717545 2.36401367 -0.01449585 C4.00799586 -0.01788758 5.65204615 -0.00873581 7.29589844 0.01220703 C9.80557295 0.03898858 12.31077629 0.0124405 14.8203125 -0.01953125 C16.42188482 -0.01622702 18.02345438 -0.00982049 19.625 0 C20.37096436 -0.01012115 21.11692871 -0.02024231 21.88549805 -0.03067017 C25.64053412 0.05336815 27.67526503 0.56901549 30.78271484 2.72119141 C33.27734486 6.33801487 33.53783874 9.16265002 33.4765625 13.4140625 C33.48134613 14.14979492 33.48612976 14.88552734 33.49105835 15.64355469 C33.4944488 17.19338123 33.48530592 18.74328011 33.46435547 20.29296875 C33.43757002 22.65788036 33.46412417 25.01804752 33.49609375 27.3828125 C33.49278949 28.89323958 33.4863829 30.40366373 33.4765625 31.9140625 C33.48668365 32.6162793 33.49680481 33.31849609 33.50723267 34.04199219 C33.42100139 37.67593812 32.85839348 39.59752413 30.78271484 42.60693359 C27.03966484 45.19931723 24.02750022 45.38785759 19.625 45.328125 C18.45481323 45.33530045 18.45481323 45.33530045 17.26098633 45.34262085 C15.61700414 45.34601258 13.97295385 45.33686081 12.32910156 45.31591797 C9.81942705 45.28913642 7.31422371 45.3156845 4.8046875 45.34765625 C3.20311518 45.34435202 1.60154562 45.33794549 0 45.328125 C-1.11894653 45.34330673 -1.11894653 45.34330673 -2.26049805 45.35879517 C-6.01553412 45.27475685 -8.05026503 44.75910951 -11.15771484 42.60693359 C-13.65234486 38.99011013 -13.91283874 36.16547498 -13.8515625 31.9140625 C-13.85634613 31.17833008 -13.86112976 30.44259766 -13.86605835 29.68457031 C-13.8694488 28.13474377 -13.86030592 26.58484489 -13.83935547 25.03515625 C-13.81257002 22.67024464 -13.83912417 20.31007748 -13.87109375 17.9453125 C-13.86778949 16.43488542 -13.8613829 14.92446127 -13.8515625 13.4140625 C-13.86168365 12.7118457 -13.87180481 12.00962891 -13.88223267 11.28613281 C-13.79600139 7.65218688 -13.23339348 5.73060087 -11.15771484 2.72119141 C-7.41466484 0.12880777 -4.40250022 -0.05973259 0 0 Z " fill="#00005B" transform="translate(14.1875,1.3359375)"/>
<path d="M0 0 C9 0 9 0 12.0625 1.625 C14 4 14 4 14.5 7.0625 C14 10 14 10 12.9375 11.8125 C10.09072753 13.55729603 7.28153235 13.69042148 4 14 C4 16.64 4 19.28 4 22 C2.68 22 1.36 22 0 22 C0 14.74 0 7.48 0 0 Z " fill="#7777D9" transform="translate(11,13)"/>
<path d="M0 0 C0.99 0.33 1.98 0.66 3 1 C2.34 1 1.68 1 1 1 C1.66 3.97 2.32 6.94 3 10 C5.97017694 9.37189827 5.97017694 9.37189827 9 8 C10.43923199 5.49004504 10.43923199 5.49004504 11 3 C11.66 3 12.32 3 13 3 C13.35915493 8.38732394 13.35915493 8.38732394 11.9375 10.8125 C9.09072753 12.55729603 6.28153235 12.69042148 3 13 C3 15.31 3 17.62 3 20 C2.01 20 1.02 20 0 20 C0 13.4 0 6.8 0 0 Z " fill="#9B9BFD" transform="translate(12,14)"/>
<path d="M0 0 C0.99 0 1.98 0 3 0 C3 1.32 3 2.64 3 4 C1.68 4.33 0.36 4.66 -1 5 C-1.33 8.63 -1.66 12.26 -2 16 C-3.32 16 -4.64 16 -6 16 C-6 11.05 -6 6.1 -6 1 C-4.35 1 -2.7 1 -1 1 C-0.67 0.67 -0.34 0.34 0 0 Z " fill="#8D8DEF" transform="translate(34,19)"/>
<path d="M0 0 C4.875 0.875 4.875 0.875 6 2 C6.04063832 3.66617115 6.042721 5.33388095 6 7 C4.02 7.33 2.04 7.66 0 8 C0 5.36 0 2.72 0 0 Z " fill="#0C0C65" transform="translate(15,16)"/>
<path d="M0 0 C11.88 0 23.76 0 36 0 C36 0.33 36 0.66 36 1 C24.12 1 12.24 1 0 1 C0 0.67 0 0.34 0 0 Z " fill="#00005A" transform="translate(6,0)"/>
<path d="M0 0 C0.66 0 1.32 0 2 0 C2.35915493 5.38732394 2.35915493 5.38732394 0.9375 7.8125 C-1.90927247 9.55729603 -4.71846765 9.69042148 -8 10 C-4.25 6.125 -4.25 6.125 -2 5 C-1.27840576 3.35636866 -0.60648579 1.68949614 0 0 Z " fill="#8D8DF0" transform="translate(23,17)"/>
<path d="M0 0 C0 1.32 0 2.64 0 4 C-1.65 4.33 -3.3 4.66 -5 5 C-5.33 3.68 -5.66 2.36 -6 1 C-3 0 -3 0 0 0 Z " fill="#8686E8" transform="translate(37,19)"/>
<path d="M0 0 C3 1 3 1 3 1 Z " fill="#00005A" transform="translate(6,47)"/>
<path d="M0 0 C2 1 2 1 2 1 Z " fill="#00005A" transform="translate(40,47)"/>
<path d="M0 0 C2 1 2 1 2 1 Z " fill="#00005A" transform="translate(4,46)"/>
<path d="" fill="#00005A" transform="translate(0,0)"/>
<path d="" fill="#00005A" transform="translate(0,0)"/>
<path d="" fill="#00005A" transform="translate(0,0)"/>
<path d="" fill="#00005B" transform="translate(0,0)"/>
<path d="M0 0 C2 1 2 1 2 1 Z " fill="#00005A" transform="translate(42,1)"/>
<path d="M0 0 C2 1 2 1 2 1 Z " fill="#00005A" transform="translate(4,1)"/>
<path d="" fill="#00005B" transform="translate(0,0)"/>
<path d="" fill="#00005B" transform="translate(0,0)"/>
<path d="" fill="#00005A" transform="translate(0,0)"/>
<path d="" fill="#00005B" transform="translate(0,0)"/>
<path d="" fill="#00005A" transform="translate(0,0)"/>
<path d="" fill="#00005B" transform="translate(0,0)"/>
<path d="" fill="#00005A" transform="translate(0,0)"/>
<path d="" fill="#00005B" transform="translate(0,0)"/>
<path d="" fill="#00005A" transform="translate(0,0)"/>
<path d="" fill="#00005B" transform="translate(0,0)"/>
<path d="" fill="#00005A" transform="translate(0,0)"/>
<path d="" fill="#00005B" transform="translate(0,0)"/>
<path d="" fill="#00005A" transform="translate(0,0)"/>
</svg>
